<?xml version="1.0" standalone="no"?>
<!DOCTYPE svg PUBLIC "-//W3C//DTD SVG 20010904//EN"
 "http://www.w3.org/TR/2001/REC-SVG-20010904/DTD/svg10.dtd">
<svg version="1.0" xmlns="http://www.w3.org/2000/svg"
 width="500.000000pt" height="500.000000pt" viewBox="0 0 500.000000 500.000000"
 preserveAspectRatio="xMidYMid meet">

<g transform="translate(0.000000,500.000000) scale(0.100000,-0.100000)"
fill="#000000" stroke="none">
<path d="M2487 3536 c-6 -15 1 -26 15 -26 11 0 10 27 -1 34 -5 3 -11 0 -14 -8z"/>
<path d="M2290 3511 c0 -12 5 -21 10 -21 6 0 10 6 10 14 0 8 -4 18 -10 21 -5
3 -10 -3 -10 -14z"/>
<path d="M2695 3517 c-4 -10 -5 -21 -1 -24 10 -10 18 4 13 24 -4 17 -4 17 -12
0z"/>
<path d="M2463 3444 c-39 -42 -79 -45 -122 -8 l-31 26 -15 -36 c-19 -44 -51
-54 -106 -33 -33 13 -38 13 -29 2 6 -8 18 -34 25 -58 l13 -45 -51 -35 c-211
-145 -290 -341 -241 -597 26 -140 114 -356 201 -493 41 -66 18 -52 -42 25 -71
91 -157 266 -186 378 -12 47 -23 132 -26 190 -8 181 34 315 138 440 67 80 25
55 -67 -42 -113 -117 -159 -241 -157 -418 2 -213 86 -435 254 -675 l50 -70
-56 60 c-116 125 -211 292 -261 460 -23 79 -27 108 -27 230 0 110 5 156 21
215 11 41 19 77 17 78 -2 2 -19 -29 -39 -70 -114 -238 -78 -509 107 -803 92
-147 277 -362 399 -467 l55 -47 -33 87 c-63 170 -69 317 -18 466 l26 79 -46
86 c-25 48 -62 136 -83 196 -35 104 -37 117 -38 240 0 152 13 200 80 300 l43
64 -33 -25 c-43 -32 -99 -115 -127 -184 -33 -85 -37 -276 -9 -410 12 -56 25
-109 28 -118 4 -15 3 -15 -6 -2 -6 8 -25 58 -42 110 -37 112 -50 276 -30 373
19 87 75 191 142 259 55 56 62 60 92 54 141 -29 385 -32 506 -5 47 10 52 13
35 23 -13 7 -103 11 -277 11 -200 0 -254 3 -241 12 25 18 128 26 296 21 142
-3 157 -6 212 -31 84 -39 137 -86 195 -173 65 -96 85 -163 84 -279 0 -138 -48
-284 -137 -416 -44 -65 -46 -54 -7 33 94 207 120 388 76 535 -14 47 -80 153
-96 153 -4 0 1 -21 12 -47 76 -176 63 -370 -36 -562 -54 -105 -95 -162 -201
-277 -99 -108 -166 -206 -196 -286 l-23 -63 -3 46 c-3 50 24 131 60 182 12 16
57 72 100 124 82 99 128 176 128 215 0 44 16 53 31 16 l13 -33 4 57 c2 42 -3
70 -18 104 -26 59 -25 62 5 34 29 -27 31 -21 9 23 -33 63 -76 119 -116 148
-45 32 -56 32 -38 -1 6 -11 10 -30 8 -42 -3 -20 -4 -20 -35 6 -23 19 -33 37
-33 56 0 15 -10 40 -22 55 -22 29 -89 64 -122 65 -17 0 -17 -1 -2 -22 9 -13
30 -50 46 -83 25 -51 30 -72 30 -135 -1 -98 -26 -170 -117 -335 -91 -165 -105
-207 -111 -328 -9 -191 41 -326 190 -514 l62 -78 9 35 c20 78 133 203 332 370
44 37 123 112 175 166 265 278 368 556 301 813 -11 40 -21 74 -23 76 -1 2 -1
-43 0 -101 8 -218 -66 -419 -225 -618 -67 -83 -194 -210 -248 -248 -25 -18
-24 -14 11 23 93 100 107 117 158 184 169 224 246 411 246 594 0 164 -54 298
-175 436 l-35 40 39 -70 c163 -286 124 -571 -122 -897 -31 -40 -72 -89 -93
-108 l-38 -35 26 35 c119 156 203 305 249 440 30 86 33 106 33 215 0 99 -4
131 -23 185 -44 126 -127 225 -238 282 -60 32 -63 34 -57 63 4 17 13 42 20 57
19 37 18 39 -16 22 -48 -25 -82 -15 -104 29 -10 22 -21 35 -25 30 -14 -21 -57
-43 -84 -43 -20 0 -40 11 -64 35 -19 19 -36 34 -36 34 -1 -1 -16 -17 -34 -35z"/>
<path d="M2110 3446 c0 -2 7 -9 15 -16 9 -7 15 -8 15 -2 0 5 -7 12 -15 16 -8
3 -15 4 -15 2z"/>
<path d="M2392 3441 c-11 -7 -11 -9 0 -13 18 -7 39 2 32 13 -6 11 -15 11 -32
0z"/>
<path d="M2576 3441 c-8 -12 18 -21 33 -11 10 5 8 9 -4 14 -21 8 -23 8 -29 -3z"/>
<path d="M2870 3440 c-8 -5 -12 -12 -9 -15 4 -3 12 1 19 10 14 17 11 19 -10 5z"/>
<path d="M2235 3400 c4 -6 11 -8 16 -5 14 9 11 15 -7 15 -8 0 -12 -5 -9 -10z"/>
<path d="M2740 3400 c0 -5 5 -10 10 -10 6 0 10 5 10 10 0 6 -4 10 -10 10 -5 0
-10 -4 -10 -10z"/>
</g>
</svg>
